<svg xmlns="http://www.w3.org/2000/svg" width="28" height="28" viewBox="0 0 28 28" fill="none">
  <g filter="url(#Pointer_svg__a)" clip-path="url(#Pointer_svg__b)">
    <path fill-rule="evenodd" clip-rule="evenodd" d="M11.0455 15.2353L10.3415 14.1197C9.86081 13.3579 8.83692 13.08 8.05373 13.4976L8.23622 13.4003C8.04186 13.504 7.94866 13.7623 8.02869 13.9771L9.00316 16.592C9.15764 17.0065 9.55219 17.5928 9.87913 17.8873C9.87913 17.8873 11.8395 19.5702 11.8395 20.2012V21H15.0156H15.8841H16.6036H17.3976V20.2012C17.3976 19.5702 18.5956 17.5829 18.5956 17.5829C18.8162 17.1966 19 16.5161 19 16.0643V12.7415C18.9856 12.0058 18.3827 11.4096 17.6388 11.4096C17.2666 11.4096 16.9651 11.7077 16.9651 12.0758V12.3419C16.9651 11.6062 16.3622 11.01 15.6182 11.01C15.2461 11.01 14.9446 11.3081 14.9446 11.6762V11.9423C14.9446 11.2066 14.3417 10.6104 13.5977 10.6104C13.2255 10.6104 12.9241 10.9085 12.9241 11.2766V11.5427C12.9241 11.4245 12.9119 11.3305 12.8884 11.256L12.6829 7.82453C12.6551 7.36051 12.278 7 11.8395 7C11.3979 7 11.0455 7.36864 11.0455 7.82337V11.1176V15.2353Z" fill="white"/>
    <path d="M7.88756 12.7464L7.88335 12.7385C7.88317 12.7386 7.883 12.7387 7.88282 12.7388L7.70086 12.8358L7.70951 12.852C7.29444 13.1793 7.14564 13.7552 7.3259 14.239L8.30037 16.8539C8.49587 17.3785 8.95802 18.067 9.37715 18.4446L9.3838 18.4506L9.39048 18.4563L9.39052 18.4563L9.39054 18.4563L9.3906 18.4564L9.39118 18.4569L9.39453 18.4598L9.40913 18.4724C9.42226 18.4838 9.44201 18.5011 9.46743 18.5235C9.5183 18.5683 9.59168 18.6337 9.68001 18.7143C9.85743 18.8761 10.0917 19.0961 10.3239 19.3329C10.5593 19.5728 10.7775 19.8147 10.9319 20.0218C11.0094 20.1257 11.0586 20.2047 11.0855 20.2581C11.0869 20.261 11.0883 20.2637 11.0895 20.2662V21V21.75H11.8395H15.0156H15.8841H16.6036H17.3976H18.1476V21V20.2012C18.1476 20.2022 18.1479 20.2006 18.1489 20.1964C18.1544 20.1712 18.1806 20.0507 18.2791 19.8094C18.379 19.5648 18.5171 19.2801 18.662 19.0016C18.8057 18.7254 18.9502 18.4665 19.0593 18.2759C19.1137 18.181 19.1589 18.1036 19.1903 18.0504L19.2263 17.9896L19.2354 17.9744L19.2375 17.9709L19.238 17.9701L19.238 17.9701L19.238 17.9701L19.238 17.97L19.2426 17.9625L19.247 17.9548C19.3993 17.6879 19.5212 17.3556 19.6051 17.0419C19.6889 16.7284 19.75 16.3769 19.75 16.0643V12.7415V12.7342L19.7499 12.7268C19.7275 11.5834 18.7919 10.6596 17.6388 10.6596C17.4198 10.6596 17.2114 10.7091 17.0249 10.7979C16.6517 10.463 16.1573 10.26 15.6182 10.26C15.3993 10.26 15.1909 10.3096 15.0044 10.3983C14.6312 10.0634 14.1368 9.86042 13.5977 9.86042C13.5838 9.86042 13.57 9.86062 13.5562 9.86102L13.4315 7.7797C13.3813 6.94057 12.6955 6.25 11.8395 6.25C10.9564 6.25 10.2955 6.98224 10.2955 7.82337V11.1176V13.0098C9.60294 12.5284 8.68558 12.4059 7.88756 12.7464ZM11.1017 20.2947C11.1016 20.2947 11.1011 20.2932 11.1002 20.2904C11.1013 20.2933 11.1018 20.2947 11.1017 20.2947Z" stroke="#363B3E" stroke-width="1.5"/>
  </g>
  <defs>
    <filter id="Pointer_svg__a" x="0.500977" y="2.5" width="25.999" height="29" filterUnits="userSpaceOnUse" color-interpolation-filters="sRGB">
      <feFlood flood-opacity="0" result="BackgroundImageFix"/>
      <feColorMatrix in="SourceAlpha" type="matrix" values="0 0 0 0 0 0 0 0 0 0 0 0 0 0 0 0 0 0 127 0" result="hardAlpha"/>
      <feOffset dy="0.5"/>
      <feGaussianBlur stdDeviation="1"/>
      <feColorMatrix type="matrix" values="0 0 0 0 0.0705882 0 0 0 0 0.0588235 0 0 0 0 0.156863 0 0 0 0.06 0"/>
      <feBlend mode="normal" in2="BackgroundImageFix" result="effect1_dropShadow_3226_7406"/>
      <feColorMatrix in="SourceAlpha" type="matrix" values="0 0 0 0 0 0 0 0 0 0 0 0 0 0 0 0 0 0 127 0" result="hardAlpha"/>
      <feOffset dy="3"/>
      <feGaussianBlur stdDeviation="3"/>
      <feColorMatrix type="matrix" values="0 0 0 0 0.0705882 0 0 0 0 0.0588235 0 0 0 0 0.156863 0 0 0 0.12 0"/>
      <feBlend mode="normal" in2="effect1_dropShadow_3226_7406" result="effect2_dropShadow_3226_7406"/>
      <feColorMatrix in="SourceAlpha" type="matrix" values="0 0 0 0 0 0 0 0 0 0 0 0 0 0 0 0 0 0 127 0" result="hardAlpha"/>
      <feOffset/>
      <feGaussianBlur stdDeviation="0.5"/>
      <feColorMatrix type="matrix" values="0 0 0 0 0.0705882 0 0 0 0 0.0588235 0 0 0 0 0.156863 0 0 0 0.24 0"/>
      <feBlend mode="normal" in2="effect2_dropShadow_3226_7406" result="effect3_dropShadow_3226_7406"/>
      <feBlend mode="normal" in="SourceGraphic" in2="effect3_dropShadow_3226_7406" result="shape"/>
    </filter>
    <clipPath id="Pointer_svg__b">
      <rect width="28" height="28" fill="white"/>
    </clipPath>
  </defs>
</svg>